<?xml version="1.0" encoding="utf-8"?>
<!-- Generator: Adobe Illustrator 22.0.0, SVG Export Plug-In . SVG Version: 6.00 Build 0)  -->
<svg version="1.1" id="Layer_1" xmlns="http://www.w3.org/2000/svg" xmlns:xlink="http://www.w3.org/1999/xlink" x="0px" y="0px"
	 viewBox="0 0 22 50" style="enable-background:new 0 0 22 50;" xml:space="preserve">
<style type="text/css">
	.st0{fill:#E5241C;}
	.st1{fill:#CCCCCC;}
</style>
<path class="st0" d="M5.5,46.9c0.3-2,0.6-4,0.9-5.9c0.1-0.3,0-0.5-0.2-0.7c-1.4-1.4-2.7-2.8-4-4.2c1-0.2,2.3-0.4,3.5-0.6
	c0.8-0.1,1.5-0.2,2.3-0.3c0.3,0,0.4-0.3,0.5-0.5c0.8-1.6,1.5-3.1,2.3-4.7c0.1-0.2,0.2-0.3,0.3-0.6c0.5,1,1,2,1.5,3
	c0.4,0.7,0.7,1.4,1.1,2.1c0.2,0.4,0.5,0.6,1,0.7c1.9,0.2,3.7,0.5,5.6,0.8c0,0.2-0.2,0.3-0.3,0.4c-1.2,1.2-2.5,2.5-3.7,3.7
	c-0.3,0.3-0.4,0.6-0.3,1c0.3,1.9,0.6,3.7,1,5.6c0,0,0,0.1,0,0.1c-0.8-0.4-1.6-0.8-2.3-1.2c-0.9-0.5-1.9-0.9-2.8-1.5
	c-0.3-0.2-0.6-0.2-0.9,0C9,45.1,7.3,45.9,5.5,46.9z"/>
<path class="st1" d="M5.5,19.9c0.3-2,0.6-4,0.9-5.9c0.1-0.3,0-0.5-0.2-0.7c-1.4-1.4-2.7-2.8-4-4.2c1-0.2,2.3-0.4,3.5-0.6
	c0.8-0.1,1.5-0.2,2.3-0.3c0.3,0,0.4-0.3,0.5-0.5C9.2,6.1,10,4.5,10.8,3c0.1-0.2,0.2-0.3,0.3-0.6c0.5,1,1,2,1.5,3
	c0.4,0.7,0.7,1.4,1.1,2.1c0.2,0.4,0.5,0.6,1,0.7c1.9,0.2,3.7,0.5,5.6,0.8c0,0.2-0.2,0.3-0.3,0.4c-1.2,1.2-2.5,2.5-3.7,3.7
	c-0.3,0.3-0.4,0.6-0.3,1c0.3,1.9,0.6,3.7,1,5.6c0,0,0,0.1,0,0.1c-0.8-0.4-1.6-0.8-2.3-1.2c-0.9-0.5-1.9-0.9-2.8-1.5
	c-0.3-0.2-0.6-0.2-0.9,0C9,18.1,7.3,18.9,5.5,19.9z"/>
</svg>
