<?xml version="1.0" encoding="utf-8"?>
<!-- Generator: Adobe Illustrator 22.0.0, SVG Export Plug-In . SVG Version: 6.00 Build 0)  -->
<svg version="1.1" id="Layer_1" xmlns="http://www.w3.org/2000/svg" xmlns:xlink="http://www.w3.org/1999/xlink" x="0px" y="0px"
	 viewBox="0 0 461 115" style="enable-background:new 0 0 461 115;" xml:space="preserve">
<style type="text/css">
	.st0{fill:#FFFFFF;}
</style>
<path class="st0" d="M173.5,113.6c-12.1-0.2-22.5-4.2-31.1-12.5c-2.1-2.1-3.3-2.5-5.7-0.2c-14.9,14-36.1,16.7-53.3,7
	C65.5,97.9,56.7,78.3,60.8,57.6c3.7-18.9,20.3-33.9,40.2-35.8c13.5-1.3,25.5,2.8,35.3,12.2c2.3,2.2,3.3,2.8,6,0.2
	c14.7-13.9,35.7-16.6,52.8-7.2c17.8,9.8,26.7,29,23.1,49.6c-3.3,18.6-19.1,33.6-38.6,36.5C177.6,113.5,175.5,113.5,173.5,113.6z
	 M173.7,44.9C161.2,44.8,151,54.9,151,67.5c-0.1,12.5,10.1,22.8,22.5,22.9c12.4,0,22.6-10.1,22.7-22.6
	C196.2,55.2,186.1,44.9,173.7,44.9z M105.4,90.4c12.3,0,22.7-10.4,22.7-22.8c0-12.4-10.2-22.7-22.6-22.7C93,44.8,82.8,55,82.9,67.6
	C82.9,80.2,93,90.4,105.4,90.4z"/>
<path class="st0" d="M456.1,67.8c0,25.4-20.2,45.7-45.4,45.7c-25.5,0-45.6-20.4-45.6-46.1c0.1-25.6,20.4-45.8,46-45.8
	C436.1,21.7,456.1,42.2,456.1,67.8z M388.2,67.4c-0.1,12.8,9.7,22.8,22.2,22.9c12.3,0.1,22.6-10.1,22.9-22.6
	c0.3-12.1-10.2-22.8-22.5-22.9C398.2,44.8,388.2,54.7,388.2,67.4z"/>
<path class="st0" d="M324.2,113.6c-12.1-0.1-21-1.4-29.3-5.8c-8.6-4.5-13.2-11.8-14.6-21.2c-0.4-2.6,0.2-3.5,2.9-3.4
	c8.6,0.1,16.3,3,23.1,8.1c7.2,5.3,15,5.7,23.3,3.7c3.8-1,7-3.3,7.1-7.7c0.1-4.3-3.5-5.8-6.8-6.7c-7.2-2-14.6-3.4-21.8-5.2
	c-2.8-0.7-5.6-1.6-8.4-2.6c-9-3.4-15.5-9.1-16.3-19.3c-0.8-10.9,2.9-19.9,12.2-26.1c12.8-8.4,38.5-7.6,50.8,1.4
	c6.5,4.7,9.3,11.5,10.7,19.1c0.5,2.7-0.8,3.1-2.9,2.9c-8-0.5-15.4-2.9-21.9-7.5c-6.1-4.4-12.7-4.6-19.6-3.2
	c-3.7,0.8-6.3,2.7-6.7,6.7c-0.4,4.2,2.8,5.8,5.9,6.7c8.3,2.3,16.7,4.1,25.1,6.2c2.5,0.6,5,1.5,7.4,2.5c8.9,3.7,15.1,9.7,15.6,19.9
	c0.5,10.7-3.2,19.5-12.7,25.3C339.1,112.1,330.4,113.6,324.2,113.6z"/>
<path class="st0" d="M29.1,1.7c11.3,0,11.3,0,11.3,11.4c0,8.5,0,8.7,8.8,8.4c4.4-0.2,6.4,1,5.6,5.6c-0.1,0.8,0,1.6,0,2.4
	c-0.1,3.9,1.2,8.7-0.7,11.4c-1.9,2.7-7,0.8-10.6,0.9c-2.3,0.1-3.1,0.8-3.1,3.1c0.1,15,0.1,30,0,45c0,5.4,3.7,5.8,7.6,5.9
	c6.7,0.2,6.7,0.2,6.7,7c0,10.6,0,10.6-10.8,10.6c-4.4,0-8.8,0.2-13.1-0.8c-9.3-2.1-13.2-6.6-13.3-16.4c-0.1-16.6-0.2-33.2,0.1-49.9
	c0-3.7-1-5-4.7-4.5c-1.4,0.2-2.9-0.1-4.4,0.1c-2.1,0.2-2.9-0.8-2.8-2.8c0.1-4.6,0.2-9.1,0-13.7c-0.1-3,0.8-3.9,3.8-3.9
	c8,0,8-0.1,8-8.3C17.5,1.7,17.5,1.7,29.1,1.7z"/>
<path class="st0" d="M246.5,37.8c2.1-3.2,3.5-5.3,5-7.4c2.9-4.1,6.8-6.9,11.7-8.3c9.8-2.8,11.7-1.5,11.7,8.3c0,4.7-0.1,9.5,0,14.2
	c0.1,2.3-0.5,3.2-3,3c-15.2-1.2-25.4,3.8-24.5,24.7c0.6,12.4,0,24.8,0.2,37.2c0,3.3-0.9,4.2-4.1,4c-5.4-0.3-10.8-0.2-16.1,0
	c-2.3,0.1-3.1-0.6-3.1-3c0.1-22.5-0.2-45,0.1-67.5c0.1-10.6,7.3-18.5,17.3-21c3.4-0.8,5.3-0.6,4.9,3.7
	C246.3,29.3,246.5,32.9,246.5,37.8z"/>
</svg>
